<?xml version="1.0" encoding="UTF-8" standalone="no"?>
<!-- Generator: Adobe Illustrator 23.0.2, SVG Export Plug-In . SVG Version: 6.00 Build 0)  -->

<svg
   xmlns:dc="http://purl.org/dc/elements/1.1/"
   xmlns:cc="http://creativecommons.org/ns#"
   xmlns:rdf="http://www.w3.org/1999/02/22-rdf-syntax-ns#"
   xmlns:svg="http://www.w3.org/2000/svg"
   xmlns="http://www.w3.org/2000/svg"
   xmlns:sodipodi="http://sodipodi.sourceforge.net/DTD/sodipodi-0.dtd"
   xmlns:inkscape="http://www.inkscape.org/namespaces/inkscape"
   version="1.1"
   id="Layer_1"
   x="0px"
   y="0px"
   viewBox="0 0 207.90183 216.82129"
   xml:space="preserve"
   sodipodi:docname="nxtgn-logo-notext.svg"
   width="207.90182"
   height="216.82129"
   inkscape:version="0.92.2 (5c3e80d, 2017-08-06)"><metadata
     id="metadata41"><rdf:RDF><cc:Work
         rdf:about=""><dc:format>image/svg+xml</dc:format><dc:type
           rdf:resource="http://purl.org/dc/dcmitype/StillImage" /><dc:title></dc:title></cc:Work></rdf:RDF></metadata><defs
     id="defs39" /><sodipodi:namedview
     pagecolor="#ffffff"
     bordercolor="#666666"
     borderopacity="1"
     objecttolerance="10"
     gridtolerance="10"
     guidetolerance="10"
     inkscape:pageopacity="0"
     inkscape:pageshadow="2"
     inkscape:window-width="2560"
     inkscape:window-height="1377"
     id="namedview37"
     showgrid="false"
     fit-margin-top="5"
     fit-margin-left="5"
     fit-margin-right="5"
     fit-margin-bottom="5"
     inkscape:zoom="0.70633306"
     inkscape:cx="-119.65544"
     inkscape:cy="115.42128"
     inkscape:window-x="-8"
     inkscape:window-y="-8"
     inkscape:window-maximized="1"
     inkscape:current-layer="Layer_1" /><style
     type="text/css"
     id="style2">
	.st0{fill:#DEF1F3;}
	.st1{fill:#C3E2EE;}
	.st2{fill:#A6D3E8;}
	.st3{fill:#88C5E2;}
	.st4{fill:#7EB4DA;}
	.st5{fill:#7AA1D1;}
	.st6{fill:#758FC8;}
	.st7{fill:#707CBF;}
	.st8{fill:#6A69B6;}
	.st9{fill:#6357AD;}
	.st10{fill:#FFFFFF;}
</style><path
     class="st0"
     d="m 119.02508,12.5 c -19.860003,0.75 -34.840003,5.12 -54.160003,9.36 -17.77,3.9 -39.67,3.57 -47.83,23.72 -8.2999997,20.51 -0.7,36.96 2.92,56.76 1.71,9.33 2.91,18.44 2.58,27.97 -0.37,10.67 0.09,20.9 5.38,30.88 4.48,8.45 8.96,14.24 16.99,18.63 10.08,5.51 17.79,7.48 27.71,13.26 21.04,12.25 36.840003,11.86 55.040003,-1.33 7.94,-5.75 15.47,-11.97 24.32,-16.36 9.21,-4.57 16.06,-11.44 24.09,-17.73 15.42,-12.1 21.24,-29.28 20.42,-49.04 -0.57,-13.61 -1.75,-24.9 -7.78,-36.43 -4.94,-9.45 -13.5,-18.05 -17.56,-28.02 -9.48,-23.35 -25.53,-32.94 -52.12,-31.67 m 1.04,-7.5 c 21.08,0.12 38.89,4.07 51.33,23.01 9.89,15.06 17.88,33.09 25.26,50.8 9.73,23.34 7.77,41.56 -3.63,64.5 -10.99,22.12 -27.61,34.92 -47.4,47.95 -17.13,11.28 -34.9,24.82 -56.360003,19.28 -17.84,-4.61 -36.8,-12.42 -51.77,-23.41 -16.06,-11.79 -22.67,-30.16 -25.79,-49.17 C 8.1450773,116.22 4.7450773,91.62 5.0150773,69.54 c 0.28,-22.71 8.0399997,-48.1 31.9099997,-55.04 12.39,-3.61 26.47,-3.57 39.25,-5.53 14.95,-2.29 28.780003,-3.03 43.890003,-3.97"
     id="path4"
     inkscape:connector-curvature="0"
     style="fill:#def1f3" /><path
     class="st1"
     d="m 125.78508,15.02 c -18.98,-0.57 -34.840003,5.57 -53.540003,8.35 -17.2,2.57 -38.07,0.83 -47.14,19.52 -9.24,19.03 -3.06,35.2 -0.89,54.32 1.03,9.01 1.58,17.77 0.65,26.84 -1.04,10.15 -1.27,19.94 3.13,29.8 3.72,8.34 7.62,14.15 15,18.86 9.25,5.91 16.48,8.29 25.56,14.44 19.27,13.04 34.360003,13.69 52.580003,2.3 7.95,-4.97 15.53,-10.42 24.24,-14.03 9.08,-3.76 16.06,-9.88 24.12,-15.36 15.49,-10.54 22.15,-26.54 22.64,-45.44 0.34,-13.02 -0.05,-23.86 -5.05,-35.25 -4.1,-9.34 -11.71,-18.09 -14.93,-27.85 -7.54,-22.87 -20.93,-35.99 -46.37,-36.5 m 0.2,-4.15 c 20.09,1.48 36.83,6.4 47.46,25.26 8.46,15 14.9,32.71 20.8,50.07 7.77,22.89 4.71,40.13 -7.64,61.27 -11.91,20.38 -28.59,31.52 -48.3,42.66 -17.07,9.64 -34.89,21.41 -54.990003,14.73 -16.72,-5.55 -34.29,-14.22 -47.85,-25.67 -14.55,-12.29 -19.67,-30.24 -21.41,-48.56 -1.99,-20.96 -3.64,-44.64 -1.95,-65.67 1.74,-21.63 10.78,-45.35 33.99,-50.42 12.06,-2.64 25.48,-1.69 37.78,-2.74 14.4,-1.21 27.630003,-1.02 42.110003,-0.93"
     id="path6"
     inkscape:connector-curvature="0"
     style="fill:#c3e2ee" /><path
     class="st2"
     d="m 116.97508,13.31 c 18.84,-0.4 37.28,3.3 48.85,19.92 9.2,13.22 16.42,30.83 23.45,46.47 9.26,20.62 9.58,38.63 -0.05,59.41 -9.29,20.04 -28.46,30.3 -45.84,42.42 -15.04,10.49 -30.59,23.02 -49.900003,18.58 -16.06,-3.69 -33.19,-10.2 -46.83,-19.67 -14.63,-10.16 -20.99,-26.41 -24.23,-43.32 -3.71,-19.34 -7.34,-41.24 -7.63,-60.98 -0.3,-20.3 6.03,-43.18 27.19,-49.96 10.99,-3.52 23.57,-3.83 34.94,-5.89 13.3,-2.4 26.560003,-5.79 40.050003,-6.98 m 2.32,3.49 c -17.72,1.15 -35.010003,11.03 -52.180003,15.29 -15.79,3.91 -39.87,1.06 -46.67,19.26 -6.93,18.54 4.76,36.13 8.48,53.74 1.75,8.3 3.04,16.41 2.98,24.94 -0.07,9.55 -0.3,19.51 4.67,28.31 4.21,7.44 9.24,11.67 16.52,15.4 9.14,4.68 16.94,11.42 25.94,16.34 19.09,10.44 32.350003,4.55 48.300003,-7.67 6.96,-5.33 13.54,-11.07 21.33,-15.21 8.13,-4.31 16.26,-8.33 23.28,-14.16 13.49,-11.18 23.39,-30.71 22.18,-48.34 -0.83,-12.15 -9.46,-20.46 -15.12,-30.62 -4.64,-8.33 -8.8,-16.9 -12.66,-25.71 -9.04,-20.64 -23.32,-33.34 -47.05,-31.57"
     id="path8"
     inkscape:connector-curvature="0"
     style="fill:#a6d3e8" /><path
     class="st3"
     d="m 119.19508,16.5 c 44.45,-3.18 48.98,38.67 66.83,66.48 14.61,22.75 10.29,37.99 -0.61,56.5 -10.23,17.37 -24.88,21.22 -41.11,31.39 -13.89,8.71 -26.92,24.08 -44.380003,25.14 -18.53,1.12 -37.49,-17.13 -52.97,-25.49 -18.8,-10.15 -14.58,-27.05 -15.18,-45.17 -0.65,-19.74 -10.77,-36.21 -13.04,-55.34 -1.05,-8.91 -0.39,-20.33 6.36,-27.1 7.36,-7.39 19,-7.77 28.59,-9.73 11.19,-2.28 21.9,-4.4 32.7,-8.3 10.07,-3.66 22.020003,-7.69 32.810003,-8.38 m -5,6.47 c -11.73,-0.07 -24.150003,4.97 -35.230003,8.36 -11.61,3.56 -23.94,6.08 -35.32,10.17 -23.12,8.32 -14.85,38.31 -11.08,56.02 4.46,20.9 0.93,49.68 18.71,64.9 12.95,11.09 36.64,26.6 54.290003,22.67 8.83,-1.97 15.52,-8.64 22.3,-13.69 8.17,-6.1 16.84,-10.94 25.52,-16.15 16.2,-9.71 29.67,-29.8 32.44,-48.4 2.92,-19.66 -16.75,-35.83 -26.63,-51.09 -10.86,-16.76 -21.54,-35.66 -45,-32.79"
     id="path10"
     inkscape:connector-curvature="0"
     style="fill:#88c5e2" /><path
     class="st4"
     d="m 114.54508,22.63 c 23.46,-2.87 34.31,16.26 45.16,33.01 9.2,14.21 28.74,31.35 26.75,49.79 -2.05,19.02 -16.69,40.37 -32.97,50.13 -8.68,5.2 -17.35,10.05 -25.52,16.14 -6.78,5.05 -13.47,11.72 -22.3,13.7 -17.650003,3.93 -41.340003,-11.58 -54.290003,-22.67 -17.17,-14.71 -14.64,-42.05 -18.54,-62.34 -3.49,-18.16 -13.73,-51.15 10.43,-59.84 11.38,-4.1 24.34,-5.96 35.94,-9.52 11.08,-3.4 23.610003,-8.47 35.340003,-8.4 m -10.63,7.41 c -17.670003,1.24 -47.050003,7.6 -59.260003,21.51 -12.2,13.9 -8.99,37.5 -6.92,54.3 3.86,31.28 27.02,71.9 63.420003,70.13 16.46,-0.8 33.92,-17.16 45.74,-27.6 11.87,-10.49 29.06,-30.79 30.59,-47.53 1.79,-19.69 -16.64,-29.39 -27.55,-42.09 -13.08,-15.23 -22.85,-31.37 -46.02,-28.72"
     id="path12"
     inkscape:connector-curvature="0"
     style="fill:#7eb4da" /><path
     class="st5"
     d="m 103.92508,28.74 c 23.22,-2.66 33.08,14.52 46.21,29.8 10.8,12.57 31.71,23.07 29.51,42.76 -1.9,16.98 -20.38,36.52 -32.55,47.28 -11.89,10.5 -29.43,26.93 -45.95,27.73 -36.520003,1.77 -59.900003,-39.01 -63.720003,-70.45 -2.06,-16.91 -5.33,-40.55 6.95,-54.55 12.24,-13.96 41.89,-21.33 59.550003,-22.57 m -11.240003,8.02 c -34.57,0.06 -60.23,42.06 -50.55,73.47 2.51,8.13 8.9,14.7 13.72,21.44 4.88,6.82 8.1,14.83 13.06,21.55 10.49,14.21 30.99,15.52 46.300003,7.11 15.14,-8.31 27.54,-23.15 38.62,-36.04 9.92,-11.54 17.97,-22.69 11.63,-39.05 -5.19,-13.38 -20.6,-21 -30.57,-30.19 -13.81,-12.71 -21.53,-20.29 -42.210003,-18.29"
     id="path14"
     inkscape:connector-curvature="0"
     style="fill:#7aa1d1" /><path
     class="st6"
     d="m 92.715077,33.99 c 20.490003,-1.99 28.520003,8.22 42.260003,20.96 9.96,9.24 29.25,15.08 34.45,28.5 6.03,15.55 -4.47,28.09 -13.99,39.2 -11.47,13.39 -23.54,30.95 -39.29,39.51 -13.85,7.53 -35.760003,6.31 -46.260003,-6.73 -5.63,-6.99 -8.88,-16.29 -14.14,-23.68 -4.84,-6.81 -11.23,-13.31 -13.75,-21.49 -9.7,-31.49 16.05,-76.21 50.72,-76.27 m -10.23,22.45 c -23.93,4 -40.07,27.61 -33.34,51.39 6.11,21.61 27.66,45.06 51.650003,36.53 12.1,-4.31 22.3,-15.16 31.17,-23.97 4.43,-4.4 10.25,-10.17 12.93,-15.91 1.84,-3.97 2.33,-2.61 1.64,-7.18 -0.26,-1.74 -2.7,-5.61 -3.65,-7.21 -6.36,-10.7 -17.82,-15.14 -27.26,-22.71 -10.48,-8.41 -19.000003,-12.37 -33.140003,-10.94"
     id="path16"
     inkscape:connector-curvature="0"
     style="fill:#758fc8" /><path
     class="st7"
     d="m 156.58508,77.39 c -6.2,-10.49 -23.12,-12.71 -32.72,-19.05 -13.23,-8.73 -21.35,-16.16 -38.190003,-11.66 -28.96,4.84 -50.11,42.73 -37.65,67.69 3.24,6.48 7.81,9.57 10.77,15.19 2.96,5.62 12.09,18.62 17.76,23.68 10.58,9.43 35.890003,5.46 46.420003,-2.74 11.97,-9.33 19.63,-25.67 27.36,-38.44 6.39,-10.58 13.43,-22.51 6.25,-34.67 m -17.6,20.96 c -1.44,5.16 -5.51,10.79 -8.6,15.07 -6.19,8.59 -13.21,19.07 -22.72,24.34 -18.850003,10.44 -40.100003,-6.17 -48.190003,-23.38 -8.9,-18.93 1.31,-40.89 20.75,-47.54 11.62,-3.15 19.28,-1.02 29.190003,4.56 8.93,5.02 19.12,7.15 25.91,15.21 1.01,1.2 3.59,4.1 4.05,5.51 1.2,3.72 0.61,2.66 -0.39,6.23"
     id="path18"
     inkscape:connector-curvature="0"
     style="fill:#707cbf" /><path
     class="st8"
     d="m 143.56508,82.35 c -8.06,-9.56 -20.15,-12.09 -30.75,-18.05 -11.77,-6.62 -20.860003,-9.15 -34.650003,-5.41 -23.06,7.89 -35.19,33.95 -24.62,56.42 9.6,20.42 34.82,40.14 57.190003,27.74 11.29,-6.26 19.62,-18.69 26.96,-28.88 3.67,-5.08 8.49,-11.76 10.2,-17.89 1.18,-4.24 1.88,-2.98 0.46,-7.39 -0.53,-1.68 -3.59,-5.11 -4.79,-6.54"
     id="path20"
     inkscape:connector-curvature="0"
     style="fill:#6a69b6" /><path
     class="st9"
     d="m 129.16508,81.62 c -7.87,-6.53 -15.3,-6.39 -24.29,-10.28 -9.980003,-4.32 -17.490003,-5.59 -28.230003,-1.44 -17.83,8.26 -25.37,30.16 -15.02,47.29 9.41,15.56 31.27,29.26 48.170003,17.45 8.53,-5.97 14.17,-16.63 19.21,-25.41 2.51,-4.39 6.22,-10.59 6.69,-16.91 0.48,-6.31 -5.37,-9.75 -6.53,-10.7"
     id="path22"
     inkscape:connector-curvature="0"
     style="fill:#6357ad" /></svg>